<svg width="176" height="120" viewBox="0 0 176 120" fill="none" xmlns="http://www.w3.org/2000/svg">
  <path d="M28 22H86L106 42V92H28V22Z" stroke="#0F4A78" stroke-width="4" stroke-linejoin="round"/>
  <path d="M86 22V42H106" stroke="#0F4A78" stroke-width="4" stroke-linejoin="round"/>
  <path d="M40 52H92" stroke="#5FA6D8" stroke-width="4" stroke-linecap="round"/>
  <path d="M40 66H92" stroke="#5FA6D8" stroke-width="4" stroke-linecap="round"/>
  <path d="M40 80H74" stroke="#5FA6D8" stroke-width="4" stroke-linecap="round"/>

  <circle cx="130" cy="40" r="16" stroke="#0F4A78" stroke-width="4"/>
  <path d="M130 31V49" stroke="#0F4A78" stroke-width="3" stroke-linecap="round"/>
  <path d="M136 35C134.8 33.2 132.8 32 130.4 32C127.8 32 125.6 33.5 125.6 35.8C125.6 38 127.3 39.1 130.2 39.8C133.1 40.5 134.9 41.7 134.9 44C134.9 46.2 132.8 48 130.2 48C127.8 48 125.7 46.5 124.8 44.3" stroke="#5FA6D8" stroke-width="2.5" stroke-linecap="round"/>

  <rect x="116" y="66" width="42" height="26" rx="6" stroke="#0F4A78" stroke-width="4"/>
  <path d="M124 79H150" stroke="#0F4A78" stroke-width="3" stroke-linecap="round"/>
  <path d="M132 70L137 66L142 70" stroke="#5FA6D8" stroke-width="3" stroke-linecap="round" stroke-linejoin="round"/>
</svg>
