<svg width="176" height="120" viewBox="0 0 176 120" fill="none" xmlns="http://www.w3.org/2000/svg">
  <rect x="18" y="22" width="46" height="70" rx="7" stroke="#0F4A78" stroke-width="4"/>
  <path d="M28 38H54M28 50H50M28 62H46" stroke="#5FA6D8" stroke-width="3" stroke-linecap="round"/>
  <path d="M72 58H112" stroke="#0F4A78" stroke-width="4" stroke-linecap="round"/>
  <path d="M104 50L112 58L104 66" stroke="#0F4A78" stroke-width="4" stroke-linecap="round" stroke-linejoin="round"/>
  <circle cx="138" cy="58" r="20" stroke="#0F4A78" stroke-width="4"/>
  <path d="M138 47V69" stroke="#0F4A78" stroke-width="3" stroke-linecap="round"/>
  <path d="M146 51C144.8 49 142.7 47.8 140.3 47.8C137.4 47.8 135 49.5 135 52.1C135 54.6 137 55.8 140 56.6C143 57.4 145 58.7 145 61.2C145 63.8 142.6 65.7 139.6 65.7C136.8 65.7 134.5 63.9 133.4 61.5" stroke="#5FA6D8" stroke-width="2.5" stroke-linecap="round"/>
  <path d="M40 98L34 104H46L40 98Z" fill="#0F4A78"/>
  <path d="M138 98L132 104H144L138 98Z" fill="#0F4A78"/>
</svg>
