<svg width="176" height="120" viewBox="0 0 176 120" fill="none" xmlns="http://www.w3.org/2000/svg">
  <path d="M22 24H86L102 40V94H22V24Z" stroke="#0F4A78" stroke-width="4" stroke-linejoin="round"/>
  <path d="M86 24V40H102" stroke="#0F4A78" stroke-width="4" stroke-linejoin="round"/>
  <path d="M34 52H90M34 66H90M34 80H74" stroke="#5FA6D8" stroke-width="3" stroke-linecap="round"/>
  <path d="M114 45H154M146 37L154 45L146 53" stroke="#0F4A78" stroke-width="4" stroke-linecap="round" stroke-linejoin="round"/>
  <circle cx="134" cy="82" r="18" stroke="#0F4A78" stroke-width="4"/>
  <path d="M134 72V92" stroke="#0F4A78" stroke-width="3" stroke-linecap="round"/>
  <path d="M140 76C139 74.4 137.2 73.3 135 73.3C132.3 73.3 130.1 74.9 130.1 77.2C130.1 79.4 131.9 80.5 135 81.3C138.1 82.1 139.9 83.3 139.9 85.6C139.9 87.9 137.7 89.5 134.9 89.5C132.4 89.5 130.3 88 129.2 85.8" stroke="#5FA6D8" stroke-width="2.5" stroke-linecap="round"/>
</svg>
