<svg width="176" height="120" viewBox="0 0 176 120" fill="none" xmlns="http://www.w3.org/2000/svg">
  <circle cx="46" cy="50" r="22" stroke="#0F4A78" stroke-width="4"/>
  <path d="M46 38V62" stroke="#0F4A78" stroke-width="3" stroke-linecap="round"/>
  <path d="M54 43C52.8 40.9 50.7 39.6 48.1 39.6C45 39.6 42.5 41.4 42.5 44.2C42.5 46.9 44.6 48.3 48.2 49.2C51.8 50.1 54 51.6 54 54.4C54 57.2 51.4 59.3 48.2 59.3C45.2 59.3 42.7 57.4 41.5 54.9" stroke="#5FA6D8" stroke-width="2.5" stroke-linecap="round"/>
  <rect x="80" y="22" width="76" height="54" rx="8" stroke="#0F4A78" stroke-width="4"/>
  <path d="M94 40H142M94 54H132" stroke="#5FA6D8" stroke-width="3" stroke-linecap="round"/>
  <path d="M120 98L110 88H116V74H124V88H130L120 98Z" fill="#0F4A78"/>
</svg>
